<svg width="1440" height="715" viewBox="0 0 1440 715" fill="none" xmlns="http://www.w3.org/2000/svg">
<g opacity="0.5">
<path opacity="0.5" d="M-49.398 22.7082C490.602 506.427 945.313 288.9 1519.3 664.14" stroke="#9747FF"/>
<path opacity="0.510204" d="M-65.1599 29.9738C486.945 507.117 936.107 284.147 1519.46 652.418" stroke="#9747FF"/>
<path opacity="0.520408" d="M-80.6665 37.3179C483.346 507.757 926.837 279.425 1519.36 640.633" stroke="#9747FF"/>
<path opacity="0.530612" d="M-95.9089 44.7265C479.801 508.344 917.507 274.737 1518.99 628.798" stroke="#9747FF"/>
<path opacity="0.540816" d="M-110.881 52.1878C476.304 508.875 908.12 270.087 1518.34 616.927" stroke="#9747FF"/>
<path opacity="0.55102" d="M-125.575 59.6878C472.847 509.349 898.678 265.478 1517.41 605.034" stroke="#9747FF"/>
<path opacity="0.561224" d="M-139.987 67.2118C469.426 509.761 889.188 260.911 1516.19 593.133" stroke="#9747FF"/>
<path opacity="0.571429" d="M-154.112 74.7471C466.035 510.111 879.652 256.391 1514.69 581.238" stroke="#9747FF"/>
<path opacity="0.581633" d="M-167.947 82.2779C462.667 510.395 870.075 251.918 1512.9 569.361" stroke="#9747FF"/>
<path opacity="0.591837" d="M-181.489 89.7915C459.316 510.613 860.463 247.497 1510.82 557.52" stroke="#9747FF"/>
<path opacity="0.602041" d="M-194.738 97.2742C455.976 510.764 850.819 243.13 1508.45 545.727" stroke="#9747FF"/>
<path opacity="0.612245" d="M-207.695 104.709C452.638 510.845 841.148 238.816 1505.8 533.996" stroke="#9747FF"/>
<path opacity="0.622449" d="M-220.36 112.085C449.298 510.856 831.456 234.56 1502.86 522.342" stroke="#9747FF"/>
<path opacity="0.632653" d="M-232.734 119.386C445.949 510.797 821.748 230.363 1499.64 510.779" stroke="#9747FF"/>
<path opacity="0.642857" d="M-244.822 126.599C442.582 510.666 812.028 226.226 1496.15 499.32" stroke="#9747FF"/>
<path opacity="0.653061" d="M-256.627 133.71C439.193 510.463 802.303 222.15 1492.38 487.979" stroke="#9747FF"/>
<path opacity="0.663265" d="M-268.154 140.705C435.774 510.19 792.579 218.138 1488.36 476.77" stroke="#9747FF"/>
<path opacity="0.673469" d="M-279.409 147.571C432.318 509.844 782.859 214.189 1484.07 465.704" stroke="#9747FF"/>
<path opacity="0.683673" d="M-290.398 154.294C428.819 509.427 773.15 210.304 1479.54 454.796" stroke="#9747FF"/>
<path opacity="0.693878" d="M-301.129 160.863C425.269 508.939 763.457 206.485 1474.77 444.057" stroke="#9747FF"/>
<path opacity="0.704082" d="M-311.608 167.263C421.664 508.381 753.787 202.732 1469.77 433.499" stroke="#9747FF"/>
<path opacity="0.714286" d="M-321.845 173.485C417.996 507.754 744.143 199.045 1464.55 423.135" stroke="#9747FF"/>
<path opacity="0.72449" d="M-331.849 179.515C414.258 507.059 734.532 195.424 1459.12 412.975" stroke="#9747FF"/>
<path opacity="0.734694" d="M-341.629 185.341C410.446 506.297 724.959 191.87 1453.5 403.029" stroke="#9747FF"/>
<path opacity="0.744898" d="M-351.194 190.954C406.552 505.469 715.429 188.382 1447.68 393.31" stroke="#9747FF"/>
<path opacity="0.755102" d="M-360.555 196.342C402.572 504.575 705.947 184.96 1441.69 383.825" stroke="#9747FF"/>
<path opacity="0.765306" d="M-369.723 201.496C398.499 503.619 696.518 181.604 1435.53 374.585" stroke="#9747FF"/>
<path opacity="0.77551" d="M-378.708 206.406C394.328 502.602 687.147 178.315 1429.22 365.599" stroke="#9747FF"/>
<path opacity="0.785714" d="M-387.52 211.061C390.055 501.523 677.84 175.089 1422.77 356.875" stroke="#9747FF"/>
<path opacity="0.795918" d="M-396.171 215.455C385.673 500.387 668.599 171.929 1416.18 348.423" stroke="#9747FF"/>
<path opacity="0.806122" d="M-404.671 219.578C381.179 499.193 659.43 168.833 1409.48 340.247" stroke="#9747FF"/>
<path opacity="0.816327" d="M-413.031 223.423C376.567 497.946 650.337 165.801 1402.68 332.358" stroke="#9747FF"/>
<path opacity="0.826531" d="M-421.261 226.983C371.833 496.645 641.324 162.831 1395.77 324.761" stroke="#9747FF"/>
<path opacity="0.836735" d="M-429.371 230.249C366.974 495.291 632.396 159.923 1388.79 317.461" stroke="#9747FF"/>
<path opacity="0.846939" d="M-437.373 233.218C361.985 493.889 623.555 157.077 1381.73 310.467" stroke="#9747FF"/>
<path opacity="0.857143" d="M-445.275 235.879C356.863 492.437 614.806 154.29 1374.61 303.781" stroke="#9747FF"/>
<path opacity="0.867347" d="M-453.087 238.232C351.604 490.94 606.15 151.565 1367.43 297.411" stroke="#9747FF"/>
<path opacity="0.877551" d="M-460.817 240.269C346.206 489.397 597.593 148.899 1360.21 291.36" stroke="#9747FF"/>
<path opacity="0.887755" d="M-468.474 241.986C340.665 487.811 589.136 146.291 1352.96 285.633" stroke="#9747FF"/>
<path opacity="0.897959" d="M-476.067 243.377C334.978 486.181 580.781 143.74 1345.68 280.232" stroke="#9747FF"/>
<path opacity="0.908163" d="M-483.602 244.44C329.144 484.511 572.532 141.247 1338.39 275.162" stroke="#9747FF"/>
<path opacity="0.918367" d="M-491.085 245.172C323.16 482.802 564.391 138.81 1331.08 270.426" stroke="#9747FF"/>
<path opacity="0.928571" d="M-498.524 245.569C317.024 481.054 556.359 136.429 1323.77 266.026" stroke="#9747FF"/>
<path opacity="0.938776" d="M-505.923 245.626C310.735 479.266 548.438 134.103 1316.45 261.964" stroke="#9747FF"/>
<path opacity="0.94898" d="M-513.287 245.346C304.29 477.443 540.629 131.832 1309.15 258.243" stroke="#9747FF"/>
<path opacity="0.959184" d="M-520.62 244.724C297.69 475.584 532.935 129.616 1301.85 254.865" stroke="#9747FF"/>
<path opacity="0.969388" d="M-527.925 243.758C290.932 473.689 525.355 127.455 1294.57 251.83" stroke="#9747FF"/>
<path opacity="0.979592" d="M-535.204 242.449C284.017 471.759 517.891 125.347 1287.3 249.139" stroke="#9747FF"/>
<path opacity="0.989796" d="M-542.46 240.793C276.943 469.793 510.542 123.293 1280.05 246.793" stroke="#9747FF"/>
</g>
</svg>
