<svg width="172" height="181" viewBox="0 0 172 181" fill="none" xmlns="http://www.w3.org/2000/svg">
<path d="M106.566 180.78C106.544 175.627 106.544 170.57 106.544 165.69C105.247 165.69 104.042 165.722 102.839 165.685C99.1015 165.569 97.0397 163.552 96.9549 159.798C96.8776 156.377 96.9278 152.953 96.9219 149.53C96.9213 149.181 96.9218 148.831 96.9218 148.389C96.0248 148.389 95.1886 148.389 94.3085 148.389C94.3085 146.991 94.3085 145.686 94.3085 144.327C95.1659 144.327 95.9758 144.327 96.8718 144.327C96.8718 142.406 96.8718 140.534 96.8718 138.597C98.6092 138.597 100.262 138.597 102.003 138.597C102.003 140.437 102.003 142.308 102.003 144.243C103.526 144.243 104.967 144.243 106.474 144.243C106.474 118.981 106.474 93.6932 106.474 68.3643C101.739 68.3643 97.0278 68.3643 92.2899 68.3643C93.1397 69.7925 94.0432 71.1433 94.7806 72.5797C97.7627 78.3882 98.5097 84.6231 98.1264 91.0478C97.8211 96.1658 96.8486 101.134 94.6498 105.808C90.7085 114.186 84.0809 119.471 75.4841 122.459C68.8868 124.751 62.0315 125.414 55.1104 125.431C37.0339 125.475 18.9573 125.446 0.880718 125.446C0.604876 125.446 0.329033 125.446 0 125.446C0 83.6141 0 41.8768 0 0.000712975C0.385019 0.000712975 0.761742 0.000706446 1.13846 0.000706446C18.3254 0.000797799 35.5124 0.00274362 52.6993 1.31575e-06C58.7771 -0.000971477 64.787 0.537154 70.5229 2.69451C81.71 6.9021 88.05 15.1259 89.0088 26.9789C89.4498 32.4299 88.7866 37.7145 86.2303 42.6404C85.6799 43.701 85.034 44.7118 84.3799 45.8353C113.618 45.8353 142.776 45.8353 172 45.8353C172 53.3398 172 60.7701 172 68.3156C159.054 68.3156 146.123 68.3156 133.136 68.3156C133.136 105.895 133.136 143.359 133.136 180.909C132.82 180.943 132.552 180.997 132.284 180.997C123.993 181.001 115.702 181.002 107.411 180.995C107.137 180.995 106.863 180.918 106.566 180.78ZM24.6868 83.2269C24.6868 90.7314 24.6868 98.2359 24.6868 105.798C24.9868 105.798 25.1599 105.798 25.3331 105.798C34.5844 105.796 43.8364 105.856 53.0866 105.753C55.6247 105.725 58.213 105.448 60.6817 104.871C66.7236 103.457 70.8597 99.8247 72.4281 93.6617C73.5924 89.0868 73.534 84.487 72.2135 79.9385C70.8042 75.0839 67.642 71.8496 62.9526 70.0782C60.2671 69.0638 57.4773 68.5444 54.6131 68.5327C44.8285 68.4926 35.0437 68.4865 25.259 68.4703C25.0933 68.47 24.9276 68.5051 24.6868 68.5321C24.6868 73.4015 24.6868 78.2073 24.6868 83.2269ZM24.6867 35.5179C24.6867 40.3165 24.6867 45.115 24.6867 49.9938C24.9984 49.9938 25.2042 49.9938 25.41 49.9938C33.5914 49.9937 41.7735 50.0468 49.9539 49.9535C51.8475 49.932 53.7817 49.5819 55.6171 49.0854C60.4114 47.7885 63.6009 44.7318 64.8586 39.8572C65.8103 36.1686 65.7745 32.4324 64.8329 28.7519C63.7124 24.3718 61.0133 21.2803 56.6788 19.9353C54.4998 19.2592 52.1725 18.7769 49.9022 18.7335C41.6526 18.5757 33.3988 18.6401 25.1465 18.6244C25.0164 18.6242 24.8862 18.6714 24.6868 18.7098C24.6868 24.2689 24.6868 29.7864 24.6867 35.5179ZM102.048 152.544C102.049 154.504 102.023 156.465 102.058 158.425C102.103 161.018 103.21 161.858 105.765 161.296C106 161.244 106.232 161.178 106.477 161.116C106.477 156.852 106.477 152.634 106.477 148.434C104.972 148.434 103.533 148.434 102.048 148.434C102.048 149.773 102.048 151.052 102.048 152.544Z" fill="#FEFEFE"/>
<path d="M71.7681 150.662C73.3737 155.485 74.955 160.227 76.5578 165.034C74.5749 165.034 72.7297 165.034 70.7941 165.034C70.187 163.209 69.5747 161.369 68.9523 159.498C65.6054 159.498 62.2998 159.484 58.9949 159.527C58.7393 159.53 58.356 159.889 58.258 160.164C57.6877 161.764 57.1849 163.387 56.6527 165.023C54.8065 165.023 53.0046 165.023 51.083 165.023C51.7976 162.844 52.4875 160.724 53.1882 158.608C55.3988 151.931 57.6226 145.259 59.8121 138.575C60.0323 137.903 60.2989 137.627 61.0589 137.651C63.1544 137.718 65.2535 137.674 67.4596 137.674C68.8858 141.971 70.3148 146.276 71.7681 150.662ZM62.3188 147.608C61.5698 149.894 60.8208 152.179 60.0474 154.539C62.5286 154.539 64.8846 154.539 67.3574 154.539C66.1485 150.828 64.9646 147.194 63.7224 143.381C63.2315 144.842 62.795 146.142 62.3188 147.608Z" fill="#FEFEFE"/>
<path d="M79.8657 144.774C80.0557 144.531 80.2427 144.275 80.4353 144.271C81.9216 144.237 83.409 144.252 85.0051 144.252C85.0051 145.17 85.0051 146.033 85.0051 147.158C87.4391 144.652 89.9726 143.091 93.4898 144.28C93.1468 145.925 92.8173 147.505 92.4677 149.181C89.8286 148.272 87.7053 149.17 85.758 150.82C85.2284 151.268 84.9934 151.732 84.9997 152.45C85.0362 156.613 85.0176 160.777 85.0176 165.001C83.3209 165.001 81.6643 165.001 79.8652 165.001C79.8652 158.308 79.8652 151.593 79.8657 144.774Z" fill="#FEFEFE"/>
</svg>
